<svg width="60" height="31" viewBox="0 0 60 31" fill="none" xmlns="http://www.w3.org/2000/svg">
<path fill-rule="evenodd" clip-rule="evenodd" d="M58.6233 17.5C58.6233 12.5125 62.4837 7.24777 62.563 7.14569C62.8582 6.7506 63.0114 6.26909 62.9984 5.77744C62.9853 5.28578 62.8067 4.81251 62.491 4.43339C62.1759 4.05687 61.7417 3.797 61.2591 3.69639C60.7765 3.59578 60.2738 3.66016 59.8327 3.87904C56.5293 5.52696 50.1885 8.96865 46.6279 12.6582C43.207 8.32698 35.3894 0 25.8084 0C20.5007 0 14.8197 2.56662 8.92413 7.61246C6.37923 9.79811 4.04042 12.2094 1.93676 14.8165L0 17.296L1.75012 19.9207C2.1601 20.5478 11.9586 35 25.8084 35C36.3313 35 43.6537 26.7605 46.8307 22.3418C50.4574 25.6522 56.7159 28.4228 60.0002 29.7353C60.2556 29.845 60.5315 29.8998 60.8098 29.8958C61.1724 29.8966 61.5294 29.8076 61.8486 29.637C62.1678 29.4664 62.439 29.2197 62.6379 28.9189C62.9158 28.497 63.0397 27.993 62.9888 27.4915C62.938 26.99 62.7157 26.521 62.3587 26.1624C60.1512 23.7843 58.8327 20.7267 58.6233 17.5ZM25.8084 30.625C14.1408 30.625 5.39 17.5 5.39 17.5C5.39 17.5 15.6 4.375 25.8084 4.375C34.4445 4.375 42.634 13.1542 44.7647 16.0417C44.6912 17.0125 44.6912 17.9875 44.7647 18.9583C42.822 21.9771 35.5466 30.625 25.8084 30.625ZM55.1979 22.6772C53.0114 21.5964 50.9785 20.2332 49.1525 18.6229L49.1863 16.2311C51.0596 14.3716 53.1544 12.746 55.4242 11.3897C54.6853 13.3454 54.2878 15.4117 54.2487 17.5C54.2559 19.267 54.5747 21.0192 55.1906 22.6772H55.1979ZM21.4338 14.5833H15.5999C15.0153 14.5833 14.4547 14.814 14.0413 15.2242C13.6279 15.6344 13.3957 16.1907 13.3957 16.7708C13.3957 17.351 13.6279 17.9072 14.0413 18.3175C14.4547 18.7277 15.0153 18.9583 15.5999 18.9583H21.4338C22.0184 18.9583 22.579 18.7277 22.9924 18.3175C23.4058 17.9072 23.638 17.351 23.638 16.7708C23.638 16.1907 23.4058 15.6344 22.9924 15.2242C22.579 14.814 22.0184 14.5833 21.4338 14.5833Z" fill="#9BB3AE"/>
</svg>
