<svg width="37" height="35" viewBox="0 0 37 35" fill="none" xmlns="http://www.w3.org/2000/svg">
<path fill-rule="evenodd" clip-rule="evenodd" d="M17.7916 0.195328C17.222 0.489643 16.0352 1.74287 15.5035 2.61633C15.2377 3.04356 14.8959 3.75562 14.744 4.20184C14.5921 4.64806 14.4307 5.01833 14.3832 5.01833C14.3358 5.01833 14.0794 4.89491 13.8136 4.743C12.0952 3.76511 9.11401 2.92963 7.33861 2.92963C6.33224 2.92963 5.68664 3.53725 5.68664 4.48666C5.68664 5.62595 6.13286 7.01209 6.89239 8.23683C7.42406 9.1008 8.9716 10.6863 9.92101 11.3414C10.2818 11.5977 10.5951 11.8446 10.6046 11.8921C10.6236 11.9395 10.1679 12.0819 9.60771 12.1959C6.57909 12.832 4.49038 13.8289 2.8574 15.4049C0.597801 17.579 -0.313633 20.6741 0.0946139 24.823C0.711731 31.1936 4.3005 38.2952 9.55074 43.5264C12.0097 45.9759 14.3073 47.5424 16.5099 48.2735C17.222 48.5013 17.4593 48.5393 18.5037 48.5393C19.548 48.5393 19.7854 48.5013 20.4974 48.2735C25.5198 46.612 31.6055 40.0421 34.7291 32.8835C36.7798 28.1934 37.5109 23.1616 36.6374 19.7247C35.9633 17.1043 34.2639 14.9966 31.7954 13.7149C30.3333 12.9554 29.2415 12.5851 27.3522 12.1864C26.8205 12.0725 26.3838 11.9395 26.4028 11.8921C26.4123 11.8446 26.7256 11.5977 27.0864 11.3414C28.6054 10.2876 30.2099 8.38874 30.7891 6.95513C31.0644 6.28105 31.3207 5.09428 31.3207 4.49615C31.3207 3.53725 30.6846 2.92963 29.6687 2.92963C27.9218 2.92963 24.8932 3.7746 23.1843 4.743C22.9089 4.89491 22.6526 5.01833 22.6146 5.01833C22.5672 5.01833 22.4153 4.64806 22.2633 4.20184C21.8931 3.11951 21.1905 1.99921 20.3171 1.11626C19.2157 0.00544357 18.5891 -0.222412 17.7916 0.195328ZM18.855 3.76511C19.7949 5.15125 20.1272 6.8412 19.7854 8.48368C19.6335 9.20523 19.1303 10.3065 18.741 10.7623L18.5037 11.0471L18.2663 10.7623C17.8771 10.3065 17.3739 9.20523 17.222 8.48368C16.8802 6.8412 17.2125 5.15125 18.1524 3.76511C18.3233 3.50877 18.4752 3.30939 18.5037 3.30939C18.5322 3.30939 18.6841 3.50877 18.855 3.76511ZM10.3862 6.37599C11.4116 6.70828 12.9306 7.44882 13.6997 7.98999L14.2598 8.38874L14.4687 9.24321C14.5921 9.70842 14.7535 10.2591 14.8295 10.449L14.9814 10.8002L14.5162 10.6199C12.1806 9.69893 10.016 8.00898 9.16148 6.44245L8.90514 5.96774L9.21845 6.0342C9.38934 6.06268 9.92101 6.21459 10.3862 6.37599ZM27.8459 6.43295C27.3237 7.39186 26.2509 8.47419 24.9597 9.33815C24.3046 9.77488 22.9564 10.4679 22.3868 10.6673L22.045 10.7907L22.2633 10.2021C22.3773 9.87931 22.5292 9.34764 22.5956 9.01535C22.7001 8.46469 22.7475 8.38874 23.1463 8.09442C23.7064 7.68618 25.4534 6.77474 26.1654 6.52789C26.7066 6.32852 27.8744 5.98673 28.0263 5.97724C28.0737 5.96774 27.9883 6.17661 27.8459 6.43295ZM23.9628 14.5504C26.849 14.8732 28.52 15.2815 30.134 16.079C32.7923 17.3702 33.9886 19.25 34.1405 22.3451C34.3493 26.7978 32.403 32.4468 28.9567 37.3458C27.58 39.3205 25.4249 41.7036 23.8204 43.0422C21.8646 44.6752 19.7569 45.748 18.5037 45.748C16.9182 45.748 14.3358 44.21 11.8388 41.7795C6.8829 36.9565 3.53148 30.4625 2.92386 24.5287C2.58207 21.1013 3.3321 18.6519 5.20244 17.1138C7.06329 15.5758 10.0729 14.7213 14.6681 14.4175C16.5384 14.2941 22.3963 14.3795 23.9628 14.5504ZM6.42719 20.2184C5.78159 20.5507 5.68665 20.8925 5.68665 22.8673C5.68665 24.3958 5.70564 24.6237 5.87653 24.956C6.09489 25.3832 6.63606 25.7155 7.11076 25.7155C7.58547 25.7155 8.12663 25.3832 8.345 24.956C8.51589 24.6237 8.53488 24.3958 8.53488 22.8673C8.53488 21.3387 8.51589 21.1108 8.345 20.7785C7.99371 20.0855 7.13925 19.8386 6.42719 20.2184ZM17.0795 22.8673C17.0795 20.8925 17.1744 20.5507 17.82 20.2184C18.5321 19.8386 19.3866 20.0855 19.7378 20.7785C19.9087 21.1108 19.9277 21.3387 19.9277 22.8673C19.9277 24.3958 19.9087 24.6237 19.7378 24.956C19.5195 25.3832 18.9783 25.7155 18.5036 25.7155C18.0289 25.7155 17.4877 25.3832 17.2694 24.956C17.0985 24.6237 17.0795 24.3958 17.0795 22.8673ZM29.213 20.2184C28.5674 20.5507 28.4725 20.8925 28.4725 22.8673C28.4725 24.3958 28.4915 24.6237 28.6624 24.956C28.8807 25.3832 29.4219 25.7155 29.8966 25.7155C30.3713 25.7155 30.9125 25.3832 31.1308 24.956C31.3017 24.6237 31.3207 24.3958 31.3207 22.8673C31.3207 21.3387 31.3017 21.1108 31.1308 20.7785C30.7796 20.0855 29.9251 19.8386 29.213 20.2184ZM11.3832 31.4119C11.3832 29.4371 11.4781 29.0954 12.1237 28.7631C12.8357 28.3833 13.6902 28.6301 14.0415 29.3232C14.2124 29.6555 14.2314 29.8834 14.2314 31.4119C14.2314 32.9405 14.2124 33.1683 14.0415 33.5006C13.8231 33.9279 13.282 34.2602 12.8073 34.2602C12.3326 34.2602 11.7914 33.9279 11.573 33.5006C11.4021 33.1683 11.3832 32.9405 11.3832 31.4119ZM23.5165 28.7631C22.8709 29.0954 22.776 29.4371 22.776 31.4119C22.776 32.9405 22.795 33.1683 22.9659 33.5006C23.1842 33.9279 23.7254 34.2602 24.2001 34.2602C24.6748 34.2602 25.216 33.9279 25.4343 33.5006C25.6052 33.1683 25.6242 32.9405 25.6242 31.4119C25.6242 29.8834 25.6052 29.6555 25.4343 29.3232C25.0831 28.6301 24.2286 28.3833 23.5165 28.7631ZM17.0795 40.0041C17.0795 37.9724 17.1649 37.6496 17.82 37.3078C18.5321 36.928 19.3866 37.1749 19.7378 37.8679C19.9087 38.2002 19.9277 38.4281 19.9277 40.0041C19.9277 41.5801 19.9087 41.808 19.7378 42.1403C19.5195 42.5675 18.9783 42.8998 18.5036 42.8998C18.0289 42.8998 17.4877 42.5675 17.2694 42.1403C17.0985 41.808 17.0795 41.5801 17.0795 40.0041Z" fill="#9BB3AE"/>
</svg>
