<svg width="33" height="35" viewBox="0 0 33 35" fill="none" xmlns="http://www.w3.org/2000/svg">
<path d="M0.692206 0.184696C0.310605 0.378185 0 0.897095 0 1.31926C0 1.75022 0.310605 2.26033 0.692206 2.44503C0.896318 2.55057 1.31342 2.63852 1.78376 2.6737C3.72726 2.81442 5.59089 3.84344 6.69132 5.40017C6.90431 5.69041 7.09955 5.98065 7.13505 6.04221C7.16167 6.09499 6.93981 6.04221 6.63808 5.91908C5.8305 5.59367 5.28916 5.46174 4.48159 5.40017C3.86038 5.3474 3.71839 5.36499 3.39003 5.5321C2.97294 5.74318 2.66233 6.23571 2.66233 6.68425C2.66233 7.39666 3.31904 8.00352 4.09999 8.00352C4.96968 8.00352 5.97249 8.41689 6.69132 9.06772C7.10842 9.44591 7.72076 10.3782 7.72076 10.6332C7.72076 10.686 7.56102 10.73 7.33028 10.73C6.37184 10.73 4.70345 11.1609 3.72726 11.6623C1.83701 12.6385 0.709955 14.3799 0.212986 17.1064C-0.00887443 18.2938 -0.00887443 21.6974 0.212986 23.6588C0.78095 28.8039 2.02337 34.3448 3.42553 38.1091C4.80107 41.7766 6.27423 43.9138 7.98699 44.7142C8.49283 44.9516 8.66145 44.9868 9.32703 44.9868C10.0192 44.9868 10.1346 44.9604 10.7647 44.6526C11.519 44.2832 12.3177 43.562 12.9034 42.7177L13.2495 42.2252L13.7465 42.6649C14.8558 43.65 16.258 44.3799 17.7932 44.7757C18.9469 45.0748 20.988 45.0748 22.1328 44.7757C24.5112 44.1601 26.4902 42.7617 27.777 40.7916C29.2679 38.5136 29.6761 35.6464 28.8774 33.1398C28.7532 32.7529 28.6822 32.4011 28.7265 32.3659C28.762 32.3395 29.0372 32.2164 29.33 32.1108C30.0843 31.8294 30.8653 31.3808 31.6107 30.7916C32.8532 29.8153 33.1549 29.314 32.933 28.584C32.8265 28.2146 31.9746 27.3791 31.2735 26.9393L30.9008 26.7018L30.9097 25.7608C30.9274 24.934 30.9008 24.7845 30.741 24.5734C30.3417 24.0369 30.1465 23.9666 29.1436 23.9666H28.2207L27.6439 23.2014C26.9694 22.3131 26.6499 22.0229 26.1973 21.8997C25.6649 21.759 25.23 21.9261 24.6976 22.4714C23.7036 23.4828 23.0824 24.5031 22.5322 26.0158C22.2748 26.737 22.2127 26.825 22.053 26.7898C21.201 26.5611 19.1422 26.5171 18.2458 26.7106C18.0062 26.7546 17.9974 26.7458 18.0506 26.5084C18.1571 25.9982 18.4588 23.4125 18.5476 22.2076C19.0179 15.8223 17.527 12.3923 13.7554 11.1873C13.0277 10.9587 11.8207 10.73 11.2972 10.73C10.9067 10.73 10.8978 10.7212 10.9511 10.5013C11.0487 10.1231 11.5634 9.39314 11.9982 9.01495C12.6816 8.41689 13.711 8.00352 14.5363 8.00352C15.3173 8.00352 15.974 7.39666 15.974 6.68425C15.974 6.23571 15.6634 5.74318 15.2463 5.5321C14.9179 5.36499 14.7759 5.3474 14.1547 5.40017C13.3471 5.46174 12.8058 5.59367 11.9982 5.91908C11.6965 6.04221 11.4746 6.09499 11.5013 6.04221C11.5368 5.98065 11.732 5.69041 11.945 5.40017C13.0454 3.84344 14.9091 2.81442 16.8526 2.6737C17.8021 2.60334 18.2103 2.40985 18.4588 1.93491C18.9558 0.967457 18.2813 0 17.1099 0C16.4266 0 15.1398 0.228668 14.421 0.466137C12.5218 1.10818 10.7824 2.39226 9.74413 3.91381C9.53114 4.22163 9.34478 4.47669 9.31816 4.47669C9.29153 4.47669 9.0963 4.22163 8.88331 3.90501C8.12898 2.78804 6.81557 1.66227 5.54652 1.02023C3.83376 0.15831 1.49978 -0.246265 0.692206 0.184696ZM12.2467 13.5004C14.7848 14.0457 15.7965 15.6025 15.9385 19.2172C15.9917 20.4046 15.8764 22.876 15.7432 23.6324L15.69 23.9226H13.6933C11.874 23.9226 11.6788 23.9402 11.3593 24.0985C10.9599 24.3008 10.6493 24.8021 10.6493 25.2419C10.6493 25.6816 10.9599 26.1829 11.3593 26.3852C11.6788 26.5435 11.874 26.5611 13.5335 26.5611H15.3528L15.2995 26.9305C15.0688 28.5312 13.9506 33.5004 13.6578 34.2744C13.5868 34.4679 13.5335 34.4767 12.6461 34.4767C11.5101 34.4767 11.1108 34.635 10.8268 35.1803C10.321 36.1653 11.0043 37.1152 12.2112 37.1152C12.7082 37.1152 12.7082 37.1152 12.6549 37.3439C12.5307 37.81 11.6433 39.7449 11.2173 40.4573C10.7114 41.3017 9.97486 42.146 9.58439 42.3043C9.20279 42.4626 8.89218 42.3043 8.31535 41.6887C7.41903 40.7212 6.46946 38.839 5.60864 36.2797C5.20929 35.1011 4.56146 32.8936 4.39285 32.1196L4.33072 31.8382H5.63527C7.16167 31.8382 7.50777 31.7238 7.8095 31.1346C8.03136 30.6948 8.03136 30.343 7.8095 29.9033C7.49002 29.2876 7.18829 29.1996 5.34241 29.1996H3.74501L3.55865 28.1794C3.21255 26.3412 2.92856 24.1513 2.71558 21.6535L2.68008 21.2841H4.80994C6.76232 21.2841 6.95756 21.2665 7.27704 21.1082C7.67639 20.9059 7.98699 20.4046 7.98699 19.9648C7.98699 19.5251 7.67639 19.0237 7.27704 18.8215C6.95756 18.6631 6.76232 18.6456 4.82769 18.6456H2.72445L2.7777 18.0387C2.80432 17.7045 2.89307 17.1592 2.98181 16.825C3.52315 14.6526 4.71233 13.6851 7.20604 13.3685C8.19998 13.2454 11.4569 13.3333 12.2467 13.5004ZM26.783 26.6051C26.9605 26.737 27.1646 26.781 27.5551 26.781H28.0876V27.3087C28.0876 27.9683 28.2385 28.1882 29.0017 28.628C29.3034 28.8039 29.5519 28.9798 29.5519 29.015C29.5519 29.1205 28.9839 29.4107 28.1408 29.7274L27.2978 30.044L26.5434 29.2876C26.1263 28.8742 25.5406 28.3817 25.2389 28.197L24.6976 27.8452L24.9993 27.0273C25.2921 26.2093 25.585 25.5673 25.7625 25.3474C25.8335 25.2595 25.94 25.3738 26.2062 25.8311C26.3926 26.1566 26.6588 26.5084 26.783 26.6051ZM21.2809 29.3404C22.5588 29.6042 23.606 30.1583 24.5733 31.073C27.2445 33.6324 27.3155 37.7045 24.733 40.3606C22.0796 43.0695 17.8376 43.0607 15.1575 40.343C14.5363 39.7098 14.5452 39.7889 15.0777 38.4169C15.8497 36.4292 16.7194 33.4037 17.2697 30.8004L17.5181 29.6394L17.9707 29.5075C19.1244 29.1733 20.1982 29.1205 21.2809 29.3404Z" fill="#9BB3AE"/>
</svg>
