<svg width="54" height="33" viewBox="0 0 54 33" fill="none" xmlns="http://www.w3.org/2000/svg">
<path d="M18.3666 0L17.6575 0.140406C2.97837 3.36973 0.0709135 17.6209 0.0709135 17.6209L0 17.8315V45H59V31.5211H56.7308C55.4455 31.5211 54.4615 30.547 54.4615 29.2746C54.4615 28.0021 55.4455 27.0281 56.7308 27.0281H59V16.5679L57.5817 15.936L19.0048 0.210608L18.3666 0ZM18.0829 4.77379L24.3942 7.37129C23.3926 7.78374 22.6923 8.36291 22.6923 9.05616C22.6923 10.2935 24.7222 11.3027 27.2308 11.3027C28.9504 11.3027 30.4307 10.8112 31.2019 10.1092L45.1719 15.7956H5.38942C6.75451 12.4698 10.1406 6.80967 18.0829 4.77379ZM4.53846 20.2886H11.5589C11.4348 20.6396 11.3462 21.0257 11.3462 21.4119C11.3462 23.2722 12.8708 24.7816 14.75 24.7816C16.6292 24.7816 18.1538 23.2722 18.1538 21.4119C18.1538 21.0257 18.0652 20.6396 17.9411 20.2886H54.4615V23.4477C51.9441 24.4394 49.9231 26.4489 49.9231 29.2746C49.9231 32.1002 51.9441 34.1098 54.4615 35.1014V40.507H26.5925C26.9826 39.8489 27.2308 39.0766 27.2308 38.2605C27.2308 35.7771 25.2009 33.7675 22.6923 33.7675C20.1837 33.7675 18.1538 35.7771 18.1538 38.2605C18.1538 39.0766 18.402 39.8489 18.7921 40.507H4.53846V20.2886ZM37.4423 24.7816C35.5631 24.7816 34.0385 26.291 34.0385 28.1513C34.0385 30.0117 35.5631 31.5211 37.4423 31.5211C39.3215 31.5211 40.8462 30.0117 40.8462 28.1513C40.8462 26.291 39.3215 24.7816 37.4423 24.7816Z" fill="#9BB3AE"/>
</svg>
