<svg width="50" height="33" viewBox="0 0 50 33" fill="none" xmlns="http://www.w3.org/2000/svg">
<path fill-rule="evenodd" clip-rule="evenodd" d="M8.1116 1.60269C5.67509 2.74429 3.28513 5.14054 2.21407 7.52733C1.10817 9.9868 0.436177 13.1536 0.479224 15.7125C0.587587 22.0281 4.29296 26.6015 11.2857 29.0541C13.1545 29.7119 22.9407 31.4431 25.5663 31.5813C27.6422 31.6949 29.3082 31.3933 30.4945 30.6862L31.1141 30.3301L33.9342 31.1946L36.7544 32.059L37.1113 33.3572C37.5258 34.8029 37.8549 35.4569 38.5913 36.2461C40.1764 37.9393 42.9001 38.2412 44.8397 36.9341C46.5593 35.7855 47.3545 33.889 46.8911 32.0582L46.723 31.3972L47.1091 31.149C48.181 30.4544 48.9242 29.3774 49.0407 28.3596C49.1332 27.5565 48.8335 26.5054 48.2789 25.6856C47.3329 24.2828 46.1658 23.609 44.5184 23.5073C43.8477 23.4698 43.6635 23.492 42.4306 23.8224C41.4764 24.078 40.9366 24.2589 40.5899 24.4513L40.1025 24.7267L37.4882 23.6171L34.8739 22.5074L34.7723 21.892C34.5727 20.7418 34.0875 20.0119 32.866 18.9997C30.995 17.4556 30.2859 16.3966 28.6179 12.6711C27.1085 9.3013 26.4629 8.10763 25.3422 6.66111C23.7099 4.5552 21.4018 2.86569 18.6776 1.78545C16.4189 0.888244 14.6676 0.533865 12.5964 0.57295C11.424 0.588434 9.19113 1.10526 8.1116 1.60269ZM11.8805 2.76503C13.4976 2.58513 15.1789 2.81345 17.122 3.47845C20.2617 4.55595 22.6133 6.30622 24.2736 8.82094C24.9591 9.85914 25.3779 10.6791 26.6072 13.4089C27.1645 14.6444 27.7912 15.9699 28.0056 16.3649C28.8946 18.0274 30.0124 19.4294 31.3112 20.4934C32.3326 21.3329 32.4753 21.4938 32.6343 22.121C32.834 22.9001 32.6329 23.8048 31.9958 25.0073C31.7159 25.5167 31.3986 26.1901 31.266 26.5062C30.6518 28.0646 29.8339 28.863 28.4659 29.2295C26.9881 29.6255 25.7002 29.5814 22.0514 29.0024C20.5097 28.7548 19.3612 28.5557 16.1174 27.9677C14.0625 27.5951 12.6768 27.2876 11.9579 27.0367C9.27908 26.1253 6.86195 24.637 5.36422 22.9657C2.87912 20.2104 2.06887 16.5447 2.97148 12.2118C3.29737 10.6583 3.88488 8.89885 4.40913 7.91665C4.9002 6.97954 5.78756 5.90005 6.80356 5.03046C8.37537 3.668 9.89507 2.98928 11.8805 2.76503ZM36.6189 25.5567C39.7174 26.8815 40.0263 27.0135 40.3001 26.9614C40.3304 26.9556 40.3603 26.9476 40.3936 26.9386L40.4048 26.9356C40.5821 26.8881 40.9986 26.686 41.3453 26.4936C41.8073 26.2249 42.2159 26.0611 42.976 25.8575C44.2235 25.5142 44.8199 25.5444 45.5931 25.998C46.4688 26.4964 47.0688 27.6209 46.8585 28.356C46.7362 28.778 46.0589 29.3577 45.2906 29.6993C44.5792 30.0167 44.2844 30.2676 44.1823 30.6299C44.0819 30.9645 44.1679 31.2854 44.4483 31.69C44.5656 31.8576 44.7181 32.2241 44.8035 32.5089C45.2463 34.128 43.7171 35.7506 41.8805 35.6182C41.2052 35.5638 40.312 35.0338 39.8929 34.4492C39.4387 33.8016 39.1122 32.9206 38.986 31.9769C38.8435 30.9381 38.7694 30.6955 38.5433 30.4936C38.4356 30.3957 37.1196 29.9428 35.6103 29.4784C34.1096 29.0116 32.8369 28.6195 32.7879 28.6055C32.6792 28.5712 33.2363 27.2725 33.8628 26.0638C34.0909 25.6316 34.3161 25.1549 34.3559 24.9994C34.398 24.8524 34.4637 24.7262 34.5059 24.7149C34.5482 24.7035 35.4812 25.0781 36.5726 25.5368L36.6189 25.5567ZM10.0935 5.95912C8.71242 6.68216 7.38837 8.02348 7.19286 8.8814C7.0192 9.65199 7.69966 10.2661 8.49344 10.0534C8.79745 9.97198 8.92517 9.87441 9.25915 9.43193C10.0952 8.32998 10.8082 7.84932 12.1278 7.50478C13.1833 7.22194 13.8957 7.21208 15.1045 7.46743C15.9005 7.6343 16.3035 7.51724 16.5817 7.03541C16.7548 6.73561 16.7761 6.61225 16.6924 6.29981C16.5408 5.73403 16.2618 5.53725 15.334 5.3514C13.9765 5.08159 13.0839 5.09448 11.7491 5.41595C10.9485 5.60331 10.4425 5.77511 10.0935 5.95912ZM18.9256 9.09546C17.6842 9.42808 16.8123 7.89679 17.6976 6.94457C17.8832 6.75908 18.0346 6.68231 18.3876 6.61487C18.7744 6.53838 18.9062 6.55737 19.219 6.74508C20.2553 7.33628 20.074 8.78773 18.9256 9.09546Z" fill="#9BB3AE"/>
</svg>
